<svg xmlns="http://www.w3.org/2000/svg" width="92" height="92" viewBox="0 0 92 92"><g><g><path fill="#969696" d="M88.508 41.938l-46.58 46.593c-4.217 4.22-10.974 4.673-15.718 1.056l-4.632-3.531-.024.013c-.246.149-.496.286-.75.414l-.155.077c-.24.116-.481.226-.727.325-.066.026-.133.05-.2.075a11.178 11.178 0 0 1-1.473.448 11.161 11.161 0 0 1-.965.181 12.102 12.102 0 0 1-1.773.11c-.119-.002-.237-.003-.356-.009a11.504 11.504 0 0 1-.97-.087c-.226-.03-.453-.065-.678-.108-.078-.015-.155-.034-.232-.05a11.368 11.368 0 0 1-.6-.147c-.068-.018-.135-.035-.202-.054a11.215 11.215 0 0 1-.92-.315c-.246-.095-.49-.198-.73-.312l-.129-.063c-.24-.118-.479-.243-.713-.378l-.055-.03a11.233 11.233 0 0 1-.845-.551c-.227-.163-.45-.334-.668-.515L8.3 84.98c-.224-.191-.444-.39-.656-.602-.212-.212-.411-.433-.603-.657l-.098-.114a11.26 11.26 0 0 1-.515-.669l-.089-.127a11.36 11.36 0 0 1-.461-.717l-.03-.056c-.136-.233-.261-.472-.379-.713-.02-.043-.043-.085-.063-.128a11.353 11.353 0 0 1-.385-.924c-.088-.24-.17-.482-.242-.727-.02-.067-.036-.135-.054-.202a11.266 11.266 0 0 1-.146-.6c-.017-.078-.036-.154-.05-.232a11.448 11.448 0 0 1-.147-1.002 11.628 11.628 0 0 1-.049-.647c-.005-.119-.006-.237-.008-.356a11.47 11.47 0 0 1 .065-1.403c.014-.124.027-.248.044-.37a11.611 11.611 0 0 1 .428-1.86c.062-.195.129-.388.201-.58.026-.066.049-.133.076-.2.098-.245.208-.487.324-.726.025-.052.05-.105.077-.156.128-.254.265-.504.414-.75l.013-.024-3.53-4.633C-1.18 61.06-.726 54.3 3.49 50.082L50.071 3.49C54.287-.73 61.045-1.184 65.788 2.433l4.632 3.532.023-.013a11.327 11.327 0 0 1 1.635-.817c.064-.026.129-.048.194-.073.194-.074.39-.142.587-.205.096-.03.19-.06.287-.089a11.358 11.358 0 0 1 .942-.23c.208-.04.418-.077.628-.107.122-.017.243-.03.366-.044a12.112 12.112 0 0 1 1.408-.065c.117.001.234.003.352.008a11.177 11.177 0 0 1 .97.087c.227.03.455.065.68.108.078.015.154.034.23.05.202.044.403.093.602.147.067.019.135.035.202.054a11.366 11.366 0 0 1 .92.315c.246.096.49.199.73.312.043.02.085.042.128.064.241.117.48.242.713.378l.055.03c.244.143.483.299.717.462.043.03.086.058.128.089.227.162.45.334.668.515l.114.098c.224.192.445.39.657.603.212.212.41.432.602.656l.098.115c.181.217.353.44.515.668l.09.128c.162.235.317.473.46.717l.031.055c.136.234.26.472.378.713l.064.129a11.241 11.241 0 0 1 .384.923c.088.24.17.483.242.727.02.067.036.135.054.202.055.2.103.4.147.601.016.077.035.153.05.23a11.245 11.245 0 0 1 .146 1.003c.022.216.04.432.05.649.005.117.006.235.008.352a11.513 11.513 0 0 1-.066 1.409 11.353 11.353 0 0 1-.38 1.937l-.09.286c-.063.197-.13.393-.205.587-.024.065-.047.13-.073.194-.099.247-.209.49-.326.732l-.074.15c-.13.256-.267.507-.416.754l-.013.023 3.53 4.633c3.617 4.745 3.162 11.505-1.055 15.723zm-67.81 40.547c.203-.166.4-.343.59-.533L81.93 21.291c.19-.19.366-.387.532-.59l.034-.042c.076-.095.143-.195.214-.293.092-.124.185-.248.268-.376.073-.113.137-.23.204-.345.057-.099.12-.196.172-.296a7.9 7.9 0 0 0 .569-1.407l.005-.021a7.98 7.98 0 0 0 .173-.71l.013-.08c.04-.218.073-.437.095-.658l.009-.126c.017-.204.028-.408.03-.612 0-.056-.003-.112-.004-.168a7.926 7.926 0 0 0-.027-.566c-.005-.068-.013-.136-.02-.204a8.018 8.018 0 0 0-.313-1.492 8.112 8.112 0 0 0-.153-.438c-.034-.09-.068-.182-.106-.272a7.94 7.94 0 0 0-.19-.41c-.045-.09-.087-.183-.136-.272-.072-.134-.152-.264-.232-.394-.053-.086-.102-.173-.159-.257a7.81 7.81 0 0 0-.298-.407c-.053-.069-.102-.14-.158-.209a7.904 7.904 0 0 0-1.1-1.1c-.068-.056-.14-.105-.21-.158a7.774 7.774 0 0 0-.406-.299c-.084-.056-.17-.105-.256-.158-.13-.08-.26-.16-.394-.233-.09-.048-.182-.09-.273-.136a8.057 8.057 0 0 0-.409-.19c-.09-.037-.181-.071-.272-.106a7.87 7.87 0 0 0-.698-.228 7.779 7.779 0 0 0-1.231-.237c-.068-.007-.136-.015-.205-.021a8.044 8.044 0 0 0-.566-.027c-.056 0-.111-.003-.167-.003a7.808 7.808 0 0 0-.611.03c-.043.003-.085.004-.127.008-.22.023-.44.055-.658.095l-.08.013a7.994 7.994 0 0 0-.71.173l-.021.006a7.874 7.874 0 0 0-1.406.569c-.1.052-.198.114-.297.172-.115.067-.232.13-.344.203-.128.084-.252.177-.376.268-.098.072-.198.139-.293.215l-.042.034c-.203.166-.4.343-.59.532L10.069 70.73a7.94 7.94 0 0 0-.532.59l-.032.04c-.078.097-.146.199-.219.298-.09.123-.182.245-.265.371-.075.117-.14.237-.21.356-.054.096-.115.189-.165.286a7.906 7.906 0 0 0-.57 1.408l-.003.013c-.07.237-.128.477-.175.718l-.012.075c-.04.22-.074.441-.096.663-.004.04-.005.082-.009.123-.017.205-.028.41-.029.616 0 .055.002.11.003.164.002.19.01.38.027.569.006.068.014.135.021.203a7.89 7.89 0 0 0 .466 1.931c.034.09.068.182.105.271.059.139.124.275.19.41.045.091.088.183.136.273.072.133.152.263.232.394.053.085.103.172.159.256.093.139.196.273.299.407.053.07.101.141.157.209a7.949 7.949 0 0 0 1.1 1.1c.068.056.14.105.21.158.133.103.267.206.406.3.084.055.171.105.257.158.13.08.26.16.393.232.09.048.182.091.273.136.135.066.271.132.41.19.09.038.18.071.271.106a8.095 8.095 0 0 0 .697.228 8.165 8.165 0 0 0 .712.162c.173.03.347.056.521.075a7.842 7.842 0 0 0 .771.048c.056.001.11.004.165.003.206-.001.411-.012.616-.029.04-.004.082-.005.123-.01.222-.021.443-.054.663-.094l.074-.013c.242-.047.481-.105.718-.175.005 0 .01-.002.013-.003a7.885 7.885 0 0 0 1.408-.57c.097-.05.19-.11.286-.166.119-.068.24-.134.355-.21.127-.082.249-.174.372-.264.099-.073.2-.141.297-.22zM5.164 63.726l3.052 4.004L67.713 8.215 63.71 5.162c-3.384-2.58-8.205-2.256-11.214.754L5.916 52.509c-3.008 3.01-3.331 7.832-.752 11.217zm80.918-24.214c3.009-3.01 3.333-7.832.753-11.217l-3.052-4.005-59.497 59.516 4.004 3.052c3.384 2.58 8.204 2.257 11.213-.753zm-23.72-9.078c-6.568 1.537-8.317 8.275-8.334 8.343-.09.313-2.133 7.082-8.599 8.595-5.71 1.336-7.67 7.656-7.69 7.72-.114.326-2.635 7.276-8.728 8.703-5.364 1.254-7.254 7.245-7.273 7.305a.658.658 0 0 1-1.258-.383c.083-.275 2.119-6.774 8.232-8.204 5.275-1.233 7.656-7.5 7.773-7.817.151-.497 2.289-7.119 8.644-8.606 5.727-1.34 7.611-7.593 7.63-7.656.07-.284 1.963-7.564 9.303-9.281 6.559-1.535 8.172-8.124 8.187-8.19a.658.658 0 1 1 1.281.3c-.046.2-.825 3.38-3.458 6.014-1.359 1.359-3.21 2.572-5.71 3.157z"/></g></g></svg>